<svg width="120" height="120" viewBox="0 0 120 120" fill="none" xmlns="http://www.w3.org/2000/svg">
  <defs>
    <linearGradient id="goldGrad1" x1="0%" y1="0%" x2="100%" y2="100%">
      <stop offset="0%" style="stop-color:#FCD34D;stop-opacity:1" />
      <stop offset="50%" style="stop-color:#F59E0B;stop-opacity:1" />
      <stop offset="100%" style="stop-color:#D97706;stop-opacity:1" />
    </linearGradient>
    <linearGradient id="goldGrad2" x1="0%" y1="0%" x2="100%" y2="100%">
      <stop offset="0%" style="stop-color:#FBBF24;stop-opacity:1" />
      <stop offset="50%" style="stop-color:#F59E0B;stop-opacity:1" />
      <stop offset="100%" style="stop-color:#B45309;stop-opacity:1" />
    </linearGradient>
    <linearGradient id="goldGrad3" x1="0%" y1="0%" x2="100%" y2="100%">
      <stop offset="0%" style="stop-color:#FDE68A;stop-opacity:1" />
      <stop offset="50%" style="stop-color:#FBBF24;stop-opacity:1" />
      <stop offset="100%" style="stop-color:#F59E0B;stop-opacity:1" />
    </linearGradient>
    <filter id="shadow">
      <feDropShadow dx="2" dy="4" stdDeviation="3" flood-color="#000000" flood-opacity="0.4"/>
    </filter>
  </defs>

  <!-- Back bar (top) -->
  <g filter="url(#shadow)">
    <path d="M 35 30 L 85 15 L 95 20 L 85 22 L 95 25 L 45 40 L 35 35 Z"
          fill="url(#goldGrad1)" stroke="#D97706" stroke-width="1"/>
    <path d="M 35 30 L 85 15 L 95 20 L 45 35 Z"
          fill="url(#goldGrad2)" opacity="0.9"/>
    <path d="M 35 30 L 35 35 L 45 40 L 45 35 Z"
          fill="#B45309" opacity="0.8"/>
  </g>

  <!-- Middle bar -->
  <g filter="url(#shadow)">
    <path d="M 25 50 L 75 35 L 85 40 L 75 42 L 85 45 L 35 60 L 25 55 Z"
          fill="url(#goldGrad2)" stroke="#D97706" stroke-width="1"/>
    <path d="M 25 50 L 75 35 L 85 40 L 35 55 Z"
          fill="url(#goldGrad3)" opacity="0.9"/>
    <path d="M 25 50 L 25 55 L 35 60 L 35 55 Z"
          fill="#B45309" opacity="0.8"/>
  </g>

  <!-- Front bar (bottom) -->
  <g filter="url(#shadow)">
    <path d="M 15 70 L 65 55 L 75 60 L 65 62 L 75 65 L 25 80 L 15 75 Z"
          fill="url(#goldGrad1)" stroke="#D97706" stroke-width="1"/>
    <path d="M 15 70 L 65 55 L 75 60 L 25 75 Z"
          fill="url(#goldGrad3)" opacity="0.95"/>
    <path d="M 15 70 L 15 75 L 25 80 L 25 75 Z"
          fill="#92400E" opacity="0.9"/>

    <!-- Shine effects -->
    <path d="M 20 71 L 35 65 L 35 67 L 20 73 Z"
          fill="#FEF3C7" opacity="0.4"/>
    <path d="M 40 63 L 50 59 L 50 61 L 40 65 Z"
          fill="#FEF3C7" opacity="0.3"/>
  </g>
</svg>
